{
	"asset":{
		"generator":"Khronos glTF Blender I/O v4.5.47",
		"version":"2.0"
	},
	"scene":0,
	"scenes":[
		{
			"name":"Scene",
			"nodes":[
				1,
				3,
				5,
				7,
				9
			]
		}
	],
	"nodes":[
		{
			"mesh":0,
			"name":"defaultMaterial"
		},
		{
			"children":[
				0
			],
			"name":"TV_Frame",
			"translation":[
				0,
				0.5072569847106934,
				0
			]
		},
		{
			"mesh":1,
			"name":"defaultMaterial.001"
		},
		{
			"children":[
				2
			],
			"name":"TV_Screen",
			"translation":[
				0,
				0.5537260174751282,
				0.02854200080037117
			]
		},
		{
			"mesh":2,
			"name":"defaultMaterial.002"
		},
		{
			"children":[
				4
			],
			"name":"TV_Buttons",
			"translation":[
				0,
				0.7446290254592896,
				-0.7006949782371521
			]
		},
		{
			"mesh":3,
			"name":"defaultMaterial.003"
		},
		{
			"children":[
				6
			],
			"name":"TV_Back2",
			"translation":[
				0,
				-0.1417810022830963,
				-0.4847100079059601
			]
		},
		{
			"mesh":4,
			"name":"defaultMaterial.004"
		},
		{
			"children":[
				8
			],
			"name":"TV_Back1",
			"translation":[
				0,
				-0.26539701223373413,
				0.06334099918603897
			]
		}
	],
	"materials":[
		{
			"doubleSided":true,
			"name":"TV_Mat",
			"normalTexture":{
				"index":0
			},
			"occlusionTexture":{
				"index":1
			},
			"pbrMetallicRoughness":{
				"baseColorTexture":{
					"index":2
				},
				"metallicRoughnessTexture":{
					"index":1
				}
			}
		}
	],
	"meshes":[
		{
			"name":"defaultMaterial",
			"primitives":[
				{
					"attributes":{
						"POSITION":0,
						"NORMAL":1,
						"TEXCOORD_0":2
					},
					"indices":3,
					"material":0
				}
			]
		},
		{
			"name":"defaultMaterial.001",
			"primitives":[
				{
					"attributes":{
						"POSITION":4,
						"NORMAL":5,
						"TEXCOORD_0":6
					},
					"indices":7,
					"material":0
				}
			]
		},
		{
			"name":"defaultMaterial.002",
			"primitives":[
				{
					"attributes":{
						"POSITION":8,
						"NORMAL":9,
						"TEXCOORD_0":10
					},
					"indices":11,
					"material":0
				}
			]
		},
		{
			"name":"defaultMaterial.003",
			"primitives":[
				{
					"attributes":{
						"POSITION":12,
						"NORMAL":13,
						"TEXCOORD_0":14
					},
					"indices":15,
					"material":0
				}
			]
		},
		{
			"name":"defaultMaterial.004",
			"primitives":[
				{
					"attributes":{
						"POSITION":16,
						"NORMAL":17,
						"TEXCOORD_0":18
					},
					"indices":19,
					"material":0
				}
			]
		}
	],
	"textures":[
		{
			"sampler":0,
			"source":0
		},
		{
			"sampler":0,
			"source":1
		},
		{
			"sampler":0,
			"source":2
		}
	],
	"images":[
		{
			"mimeType":"image/png",
			"name":"TV_Mat_normal",
			"uri":"TV_Mat_normal.png"
		},
		{
			"mimeType":"image/png",
			"name":"TV_Mat_metallicRoughness",
			"uri":"TV_Mat_metallicRoughness.png"
		},
		{
			"mimeType":"image/jpeg",
			"name":"TV_Mat_baseColor",
			"uri":"TV_Mat_baseColor.jpg"
		}
	],
	"accessors":[
		{
			"bufferView":0,
			"componentType":5126,
			"count":394,
			"max":[
				1.0886329412460327,
				0.24223099648952484,
				0.8133559823036194
			],
			"min":[
				-1.0886329412460327,
				-0.24222999811172485,
				-0.813355028629303
			],
			"type":"VEC3"
		},
		{
			"bufferView":1,
			"componentType":5126,
			"count":394,
			"type":"VEC3"
		},
		{
			"bufferView":2,
			"componentType":5126,
			"count":394,
			"type":"VEC2"
		},
		{
			"bufferView":3,
			"componentType":5123,
			"count":1236,
			"type":"SCALAR"
		},
		{
			"bufferView":4,
			"componentType":5126,
			"count":234,
			"max":[
				0.7913960218429565,
				0.24223700165748596,
				0.6274679899215698
			],
			"min":[
				-0.7913960218429565,
				-0.24223600327968597,
				-0.6274679899215698
			],
			"type":"VEC3"
		},
		{
			"bufferView":5,
			"componentType":5126,
			"count":234,
			"type":"VEC3"
		},
		{
			"bufferView":6,
			"componentType":5126,
			"count":234,
			"type":"VEC2"
		},
		{
			"bufferView":7,
			"componentType":5123,
			"count":960,
			"type":"SCALAR"
		},
		{
			"bufferView":8,
			"componentType":5126,
			"count":40,
			"max":[
				0.3500089943408966,
				0.028516000136733055,
				0.033727001398801804
			],
			"min":[
				-0.3500089943408966,
				-0.028514999896287918,
				-0.03372599929571152
			],
			"type":"VEC3"
		},
		{
			"bufferView":9,
			"componentType":5126,
			"count":40,
			"type":"VEC3"
		},
		{
			"bufferView":10,
			"componentType":5126,
			"count":40,
			"type":"VEC2"
		},
		{
			"bufferView":11,
			"componentType":5123,
			"count":84,
			"type":"SCALAR"
		},
		{
			"bufferView":12,
			"componentType":5126,
			"count":48,
			"max":[
				0.9188709855079651,
				0.42493799328804016,
				0.3245469927787781
			],
			"min":[
				-0.9188709855079651,
				-0.42493799328804016,
				-0.3245460093021393
			],
			"type":"VEC3"
		},
		{
			"bufferView":13,
			"componentType":5126,
			"count":48,
			"type":"VEC3"
		},
		{
			"bufferView":14,
			"componentType":5126,
			"count":48,
			"type":"VEC2"
		},
		{
			"bufferView":15,
			"componentType":5123,
			"count":84,
			"type":"SCALAR"
		},
		{
			"bufferView":16,
			"componentType":5126,
			"count":158,
			"max":[
				0.8104559779167175,
				0.5305669903755188,
				0.7493720054626465
			],
			"min":[
				-0.8104559779167175,
				-0.5305659770965576,
				-0.7493720054626465
			],
			"type":"VEC3"
		},
		{
			"bufferView":17,
			"componentType":5126,
			"count":158,
			"type":"VEC3"
		},
		{
			"bufferView":18,
			"componentType":5126,
			"count":158,
			"type":"VEC2"
		},
		{
			"bufferView":19,
			"componentType":5123,
			"count":516,
			"type":"SCALAR"
		}
	],
	"bufferViews":[
		{
			"buffer":0,
			"byteLength":4728,
			"byteOffset":0,
			"target":34962
		},
		{
			"buffer":0,
			"byteLength":4728,
			"byteOffset":4728,
			"target":34962
		},
		{
			"buffer":0,
			"byteLength":3152,
			"byteOffset":9456,
			"target":34962
		},
		{
			"buffer":0,
			"byteLength":2472,
			"byteOffset":12608,
			"target":34963
		},
		{
			"buffer":0,
			"byteLength":2808,
			"byteOffset":15080,
			"target":34962
		},
		{
			"buffer":0,
			"byteLength":2808,
			"byteOffset":17888,
			"target":34962
		},
		{
			"buffer":0,
			"byteLength":1872,
			"byteOffset":20696,
			"target":34962
		},
		{
			"buffer":0,
			"byteLength":1920,
			"byteOffset":22568,
			"target":34963
		},
		{
			"buffer":0,
			"byteLength":480,
			"byteOffset":24488,
			"target":34962
		},
		{
			"buffer":0,
			"byteLength":480,
			"byteOffset":24968,
			"target":34962
		},
		{
			"buffer":0,
			"byteLength":320,
			"byteOffset":25448,
			"target":34962
		},
		{
			"buffer":0,
			"byteLength":168,
			"byteOffset":25768,
			"target":34963
		},
		{
			"buffer":0,
			"byteLength":576,
			"byteOffset":25936,
			"target":34962
		},
		{
			"buffer":0,
			"byteLength":576,
			"byteOffset":26512,
			"target":34962
		},
		{
			"buffer":0,
			"byteLength":384,
			"byteOffset":27088,
			"target":34962
		},
		{
			"buffer":0,
			"byteLength":168,
			"byteOffset":27472,
			"target":34963
		},
		{
			"buffer":0,
			"byteLength":1896,
			"byteOffset":27640,
			"target":34962
		},
		{
			"buffer":0,
			"byteLength":1896,
			"byteOffset":29536,
			"target":34962
		},
		{
			"buffer":0,
			"byteLength":1264,
			"byteOffset":31432,
			"target":34962
		},
		{
			"buffer":0,
			"byteLength":1032,
			"byteOffset":32696,
			"target":34963
		}
	],
	"samplers":[
		{
			"magFilter":9729,
			"minFilter":9987
		}
	],
	"buffers":[
		{
			"byteLength":33728,
			"uri":"TV.bin"
		}
	]
}
