{
	"asset":{
		"generator":"Khronos glTF Blender I/O v4.5.47",
		"version":"2.0"
	},
	"scene":0,
	"scenes":[
		{
			"name":"Scene",
			"nodes":[
				3
			]
		}
	],
	"nodes":[
		{
			"mesh":0,
			"name":"Joker_Material.001_0"
		},
		{
			"children":[
				0
			],
			"name":"Joker",
			"scale":[
				247.685546875,
				247.685546875,
				247.685546875
			]
		},
		{
			"children":[
				1
			],
			"name":"RootNode"
		},
		{
			"children":[
				2
			],
			"name":"Joker.fbx",
			"scale":[
				0.009999999776482582,
				0.009999999776482582,
				0.009999999776482582
			]
		}
	],
	"materials":[
		{
			"doubleSided":true,
			"name":"Material.001",
			"pbrMetallicRoughness":{
				"baseColorTexture":{
					"index":0
				},
				"metallicFactor":0.7542880177497864,
				"roughnessFactor":0.8257648944854736
			}
		}
	],
	"meshes":[
		{
			"name":"Joker_Material.001_0",
			"primitives":[
				{
					"attributes":{
						"POSITION":0,
						"NORMAL":1,
						"TEXCOORD_0":2
					},
					"indices":3,
					"material":0
				}
			]
		}
	],
	"textures":[
		{
			"sampler":0,
			"source":0
		}
	],
	"images":[
		{
			"mimeType":"image/png",
			"name":"Material.001_baseColor",
			"uri":"textures/Material.001_baseColor.png"
		}
	],
	"accessors":[
		{
			"bufferView":0,
			"componentType":5126,
			"count":613,
			"max":[
				0.8522299528121948,
				2.7978694438934326,
				0.22470597922801971
			],
			"min":[
				-0.8522299528121948,
				-0.0006519999587908387,
				-0.29477059841156006
			],
			"type":"VEC3"
		},
		{
			"bufferView":1,
			"componentType":5126,
			"count":613,
			"type":"VEC3"
		},
		{
			"bufferView":2,
			"componentType":5126,
			"count":613,
			"type":"VEC2"
		},
		{
			"bufferView":3,
			"componentType":5123,
			"count":2142,
			"type":"SCALAR"
		}
	],
	"bufferViews":[
		{
			"buffer":0,
			"byteLength":7356,
			"byteOffset":0,
			"target":34962
		},
		{
			"buffer":0,
			"byteLength":7356,
			"byteOffset":7356,
			"target":34962
		},
		{
			"buffer":0,
			"byteLength":4904,
			"byteOffset":14712,
			"target":34962
		},
		{
			"buffer":0,
			"byteLength":4284,
			"byteOffset":19616,
			"target":34963
		}
	],
	"samplers":[
		{
			"magFilter":9729,
			"minFilter":9987
		}
	],
	"buffers":[
		{
			"byteLength":23900,
			"uri":"Joker.bin"
		}
	]
}
