{
	"asset":{
		"generator":"Khronos glTF Blender I/O v4.5.47",
		"version":"2.0"
	},
	"scene":0,
	"scenes":[
		{
			"name":"Scene",
			"nodes":[
				10
			]
		}
	],
	"nodes":[
		{
			"mesh":0,
			"name":"Car_Material.006_0"
		},
		{
			"children":[
				0
			],
			"name":"Car",
			"rotation":[
				-0.70710688829422,
				0,
				0,
				0.7071066498756409
			],
			"scale":[
				187.54652404785156,
				99.99999237060547,
				54.41551971435547
			]
		},
		{
			"mesh":1,
			"name":"Wheel1_Material.010_0"
		},
		{
			"children":[
				2
			],
			"name":"Wheel1",
			"scale":[
				-23.83223533630371,
				-23.83223533630371,
				-7.547611236572266
			],
			"translation":[
				121.4263916015625,
				-50.30936050415039,
				85.0341567993164
			]
		},
		{
			"mesh":2,
			"name":"Wheel2_Material.014_0"
		},
		{
			"children":[
				4
			],
			"name":"Wheel2",
			"scale":[
				-23.83223533630371,
				-23.83223533630371,
				-7.547611236572266
			],
			"translation":[
				-72.11141967773438,
				-50.30936050415039,
				85.0341567993164
			]
		},
		{
			"mesh":3,
			"name":"Wheel3_Material.015_0"
		},
		{
			"children":[
				6
			],
			"name":"Wheel3",
			"scale":[
				-23.83223533630371,
				-23.83223533630371,
				-7.547611236572266
			],
			"translation":[
				-72.11141967773438,
				-50.30936050415039,
				-83.56751251220703
			]
		},
		{
			"mesh":4,
			"name":"Wheel4_Material.016_0"
		},
		{
			"children":[
				8
			],
			"name":"Wheel4",
			"scale":[
				-23.83223533630371,
				-23.83223533630371,
				-7.547611236572266
			],
			"translation":[
				121.4263916015625,
				-50.30936050415039,
				-83.56751251220703
			]
		},
		{
			"children":[
				1,
				3,
				5,
				7,
				9
			],
			"name":"RootNode"
		}
	],
	"materials":[
		{
			"doubleSided":true,
			"name":"Material.006",
			"pbrMetallicRoughness":{
				"baseColorTexture":{
					"index":0
				},
				"metallicFactor":0,
				"roughnessFactor":0.8211145401000977
			}
		},
		{
			"doubleSided":true,
			"name":"Material.010",
			"pbrMetallicRoughness":{
				"baseColorTexture":{
					"index":1
				},
				"metallicFactor":0,
				"roughnessFactor":0.8211145401000977
			}
		},
		{
			"doubleSided":true,
			"name":"Material.014",
			"pbrMetallicRoughness":{
				"baseColorTexture":{
					"index":2
				},
				"metallicFactor":0,
				"roughnessFactor":0.8211145401000977
			}
		},
		{
			"doubleSided":true,
			"name":"Material.015",
			"pbrMetallicRoughness":{
				"baseColorTexture":{
					"index":3
				},
				"metallicFactor":0,
				"roughnessFactor":0.8211145401000977
			}
		},
		{
			"doubleSided":true,
			"name":"Material.016",
			"pbrMetallicRoughness":{
				"baseColorTexture":{
					"index":4
				},
				"metallicFactor":0,
				"roughnessFactor":0.8211145401000977
			}
		}
	],
	"meshes":[
		{
			"name":"Car_Material.006_0",
			"primitives":[
				{
					"attributes":{
						"POSITION":0,
						"NORMAL":1,
						"TEXCOORD_0":2
					},
					"indices":3,
					"material":0
				}
			]
		},
		{
			"name":"Wheel1_Material.010_0",
			"primitives":[
				{
					"attributes":{
						"POSITION":4,
						"NORMAL":5,
						"TEXCOORD_0":6
					},
					"indices":7,
					"material":1
				}
			]
		},
		{
			"name":"Wheel2_Material.014_0",
			"primitives":[
				{
					"attributes":{
						"POSITION":8,
						"NORMAL":9,
						"TEXCOORD_0":10
					},
					"indices":7,
					"material":2
				}
			]
		},
		{
			"name":"Wheel3_Material.015_0",
			"primitives":[
				{
					"attributes":{
						"POSITION":11,
						"NORMAL":12,
						"TEXCOORD_0":13
					},
					"indices":7,
					"material":3
				}
			]
		},
		{
			"name":"Wheel4_Material.016_0",
			"primitives":[
				{
					"attributes":{
						"POSITION":14,
						"NORMAL":15,
						"TEXCOORD_0":16
					},
					"indices":7,
					"material":4
				}
			]
		}
	],
	"textures":[
		{
			"sampler":0,
			"source":0
		},
		{
			"sampler":0,
			"source":0
		},
		{
			"sampler":0,
			"source":0
		},
		{
			"sampler":0,
			"source":0
		},
		{
			"sampler":0,
			"source":0
		}
	],
	"images":[
		{
			"mimeType":"image/png",
			"name":"Material.006_baseColor",
			"uri":"textures/Material.006_baseColor.png"
		}
	],
	"accessors":[
		{
			"bufferView":0,
			"componentType":5126,
			"count":88,
			"max":[
				1.0162098407745361,
				0.8502864241600037,
				0.8590061068534851
			],
			"min":[
				-0.8233910799026489,
				-0.8502864241600037,
				-0.9680448770523071
			],
			"type":"VEC3"
		},
		{
			"bufferView":1,
			"componentType":5126,
			"count":88,
			"type":"VEC3"
		},
		{
			"bufferView":2,
			"componentType":5126,
			"count":88,
			"type":"VEC2"
		},
		{
			"bufferView":3,
			"componentType":5123,
			"count":126,
			"type":"SCALAR"
		},
		{
			"bufferView":4,
			"componentType":5126,
			"count":54,
			"max":[
				0.9848077893257141,
				1,
				1
			],
			"min":[
				-0.9848077297210693,
				-0.9396926760673523,
				-1
			],
			"type":"VEC3"
		},
		{
			"bufferView":5,
			"componentType":5126,
			"count":54,
			"type":"VEC3"
		},
		{
			"bufferView":6,
			"componentType":5126,
			"count":54,
			"type":"VEC2"
		},
		{
			"bufferView":7,
			"componentType":5123,
			"count":96,
			"type":"SCALAR"
		},
		{
			"bufferView":8,
			"componentType":5126,
			"count":54,
			"max":[
				0.9848077893257141,
				1,
				1
			],
			"min":[
				-0.9848077297210693,
				-0.9396926760673523,
				-1
			],
			"type":"VEC3"
		},
		{
			"bufferView":9,
			"componentType":5126,
			"count":54,
			"type":"VEC3"
		},
		{
			"bufferView":10,
			"componentType":5126,
			"count":54,
			"type":"VEC2"
		},
		{
			"bufferView":11,
			"componentType":5126,
			"count":54,
			"max":[
				0.9848077893257141,
				1,
				1
			],
			"min":[
				-0.9848077297210693,
				-0.9396926760673523,
				-1
			],
			"type":"VEC3"
		},
		{
			"bufferView":12,
			"componentType":5126,
			"count":54,
			"type":"VEC3"
		},
		{
			"bufferView":13,
			"componentType":5126,
			"count":54,
			"type":"VEC2"
		},
		{
			"bufferView":14,
			"componentType":5126,
			"count":54,
			"max":[
				0.9848077893257141,
				1,
				1
			],
			"min":[
				-0.9848077297210693,
				-0.9396926760673523,
				-1
			],
			"type":"VEC3"
		},
		{
			"bufferView":15,
			"componentType":5126,
			"count":54,
			"type":"VEC3"
		},
		{
			"bufferView":16,
			"componentType":5126,
			"count":54,
			"type":"VEC2"
		}
	],
	"bufferViews":[
		{
			"buffer":0,
			"byteLength":1056,
			"byteOffset":0,
			"target":34962
		},
		{
			"buffer":0,
			"byteLength":1056,
			"byteOffset":1056,
			"target":34962
		},
		{
			"buffer":0,
			"byteLength":704,
			"byteOffset":2112,
			"target":34962
		},
		{
			"buffer":0,
			"byteLength":252,
			"byteOffset":2816,
			"target":34963
		},
		{
			"buffer":0,
			"byteLength":648,
			"byteOffset":3068,
			"target":34962
		},
		{
			"buffer":0,
			"byteLength":648,
			"byteOffset":3716,
			"target":34962
		},
		{
			"buffer":0,
			"byteLength":432,
			"byteOffset":4364,
			"target":34962
		},
		{
			"buffer":0,
			"byteLength":192,
			"byteOffset":4796,
			"target":34963
		},
		{
			"buffer":0,
			"byteLength":648,
			"byteOffset":4988,
			"target":34962
		},
		{
			"buffer":0,
			"byteLength":648,
			"byteOffset":5636,
			"target":34962
		},
		{
			"buffer":0,
			"byteLength":432,
			"byteOffset":6284,
			"target":34962
		},
		{
			"buffer":0,
			"byteLength":648,
			"byteOffset":6716,
			"target":34962
		},
		{
			"buffer":0,
			"byteLength":648,
			"byteOffset":7364,
			"target":34962
		},
		{
			"buffer":0,
			"byteLength":432,
			"byteOffset":8012,
			"target":34962
		},
		{
			"buffer":0,
			"byteLength":648,
			"byteOffset":8444,
			"target":34962
		},
		{
			"buffer":0,
			"byteLength":648,
			"byteOffset":9092,
			"target":34962
		},
		{
			"buffer":0,
			"byteLength":432,
			"byteOffset":9740,
			"target":34962
		}
	],
	"samplers":[
		{
			"magFilter":9729,
			"minFilter":9987
		}
	],
	"buffers":[
		{
			"byteLength":10172,
			"uri":"Car.bin"
		}
	]
}
