{
	"asset":{
		"generator":"Khronos glTF Blender I/O v4.5.47",
		"version":"2.0"
	},
	"extensionsUsed":[
		"KHR_materials_unlit"
	],
	"scene":0,
	"scenes":[
		{
			"name":"Scene",
			"nodes":[
				2
			]
		}
	],
	"nodes":[
		{
			"mesh":0,
			"name":"TVCRT_M_TVCRT_0"
		},
		{
			"children":[
				0
			],
			"name":"TVCRT",
			"rotation":[
				-0.70710688829422,
				0,
				0,
				0.7071066498756409
			],
			"scale":[
				100,
				99.99999237060547,
				99.99999237060547
			]
		},
		{
			"children":[
				1
			],
			"name":"RootNode.001"
		}
	],
	"materials":[
		{
			"doubleSided":true,
			"extensions":{
				"KHR_materials_unlit":{}
			},
			"name":"M_TVCRT.001",
			"pbrMetallicRoughness":{
				"baseColorTexture":{
					"index":0
				},
				"metallicFactor":0,
				"roughnessFactor":0.9
			}
		}
	],
	"meshes":[
		{
			"name":"TVCRT_M_TVCRT_0.001",
			"primitives":[
				{
					"attributes":{
						"POSITION":0,
						"NORMAL":1,
						"TEXCOORD_0":2
					},
					"indices":3,
					"material":0
				}
			]
		}
	],
	"textures":[
		{
			"sampler":0,
			"source":0
		}
	],
	"images":[
		{
			"mimeType":"image/png",
			"name":"M_TVCRT_baseColor",
			"uri":"textures/M_TVCRT_baseColor.png"
		}
	],
	"accessors":[
		{
			"bufferView":0,
			"componentType":5126,
			"count":119,
			"max":[
				0.30000007152557373,
				0.24000002443790436,
				0.5400000214576721
			],
			"min":[
				-0.30000001192092896,
				-0.21000003814697266,
				-3.874262333170009e-08
			],
			"type":"VEC3"
		},
		{
			"bufferView":1,
			"componentType":5126,
			"count":119,
			"type":"VEC3"
		},
		{
			"bufferView":2,
			"componentType":5126,
			"count":119,
			"type":"VEC2"
		},
		{
			"bufferView":3,
			"componentType":5123,
			"count":192,
			"type":"SCALAR"
		}
	],
	"bufferViews":[
		{
			"buffer":0,
			"byteLength":1428,
			"byteOffset":0,
			"target":34962
		},
		{
			"buffer":0,
			"byteLength":1428,
			"byteOffset":1428,
			"target":34962
		},
		{
			"buffer":0,
			"byteLength":952,
			"byteOffset":2856,
			"target":34962
		},
		{
			"buffer":0,
			"byteLength":384,
			"byteOffset":3808,
			"target":34963
		}
	],
	"samplers":[
		{
			"magFilter":9728,
			"minFilter":9984
		}
	],
	"buffers":[
		{
			"byteLength":4192,
			"uri":"TV.bin"
		}
	]
}
